<svg width="53" height="53" viewBox="0 0 53 53" fill="none" xmlns="http://www.w3.org/2000/svg">
<g filter="url(#filter0_d_239_387)">
<rect x="4" width="45" height="45" rx="10" fill="white"/>
<path d="M16.1667 30.25C15.8007 30.25 15.4941 30.126 15.247 29.878C14.9999 29.63 14.8759 29.3234 14.875 28.9583C14.8741 28.5932 14.9981 28.2867 15.247 28.0387C15.4959 27.7907 15.8024 27.6667 16.1667 27.6667H36.8333C37.1993 27.6667 37.5063 27.7907 37.7543 28.0387C38.0023 28.2867 38.1259 28.5932 38.125 28.9583C38.1241 29.3234 38.0001 29.6304 37.753 29.8793C37.5059 30.1282 37.1993 30.2517 36.8333 30.25H16.1667ZM16.1667 23.7917C15.8007 23.7917 15.4941 23.6677 15.247 23.4197C14.9999 23.1717 14.8759 22.8651 14.875 22.5C14.8741 22.1349 14.9981 21.8283 15.247 21.5803C15.4959 21.3323 15.8024 21.2083 16.1667 21.2083H36.8333C37.1993 21.2083 37.5063 21.3323 37.7543 21.5803C38.0023 21.8283 38.1259 22.1349 38.125 22.5C38.1241 22.8651 38.0001 23.1721 37.753 23.421C37.5059 23.6698 37.1993 23.7934 36.8333 23.7917H16.1667ZM16.1667 17.3333C15.8007 17.3333 15.4941 17.2093 15.247 16.9613C14.9999 16.7133 14.8759 16.4068 14.875 16.0417C14.8741 15.6766 14.9981 15.37 15.247 15.122C15.4959 14.874 15.8024 14.75 16.1667 14.75H36.8333C37.1993 14.75 37.5063 14.874 37.7543 15.122C38.0023 15.37 38.1259 15.6766 38.125 16.0417C38.1241 16.4068 38.0001 16.7138 37.753 16.9626C37.5059 17.2115 37.1993 17.3351 36.8333 17.3333H16.1667Z" fill="black"/>
</g>
<defs>
<filter id="filter0_d_239_387" x="0" y="0" width="53" height="53" filterUnits="userSpaceOnUse" color-interpolation-filters="sRGB">
<feFlood flood-opacity="0" result="BackgroundImageFix"/>
<feColorMatrix in="SourceAlpha" type="matrix" values="0 0 0 0 0 0 0 0 0 0 0 0 0 0 0 0 0 0 127 0" result="hardAlpha"/>
<feOffset dy="4"/>
<feGaussianBlur stdDeviation="2"/>
<feComposite in2="hardAlpha" operator="out"/>
<feColorMatrix type="matrix" values="0 0 0 0 0 0 0 0 0 0 0 0 0 0 0 0 0 0 0.05 0"/>
<feBlend mode="normal" in2="BackgroundImageFix" result="effect1_dropShadow_239_387"/>
<feBlend mode="normal" in="SourceGraphic" in2="effect1_dropShadow_239_387" result="shape"/>
</filter>
</defs>
</svg>
