<svg width="25" height="12" viewBox="0 0 25 12" fill="none" xmlns="http://www.w3.org/2000/svg">
<g clip-path="url(#clip0_430_127)">
<path d="M18 0.5H4C2.067 0.5 0.5 2.067 0.5 4V8C0.5 9.933 2.067 11.5 4 11.5H18C19.933 11.5 21.5 9.933 21.5 8V4C21.5 2.067 19.933 0.5 18 0.5Z" stroke="#1F242C" stroke-opacity="0.35"/>
<path d="M16 2H4C2.89543 2 2 2.89543 2 4V8C2 9.10457 2.89543 10 4 10H16C17.1046 10 18 9.10457 18 8V4C18 2.89543 17.1046 2 16 2Z" fill="#1F242C"/>
</g>
<defs>
<clipPath id="clip0_430_127">
<rect width="25" height="12" fill="white"/>
</clipPath>
</defs>
</svg>
