<svg width="16" height="12" viewBox="0 0 16 12" fill="none" xmlns="http://www.w3.org/2000/svg">
<g clip-path="url(#clip0_430_130)">
<path d="M2 4H1C0.447715 4 0 4.44772 0 5V11C0 11.5523 0.447715 12 1 12H2C2.55228 12 3 11.5523 3 11V5C3 4.44772 2.55228 4 2 4Z" fill="#1F242C"/>
<path d="M6.5 2.5H5.5C4.94772 2.5 4.5 2.94772 4.5 3.5V11C4.5 11.5523 4.94772 12 5.5 12H6.5C7.05228 12 7.5 11.5523 7.5 11V3.5C7.5 2.94772 7.05228 2.5 6.5 2.5Z" fill="#1F242C"/>
<path d="M11 1H10C9.44772 1 9 1.44772 9 2V11C9 11.5523 9.44772 12 10 12H11C11.5523 12 12 11.5523 12 11V2C12 1.44772 11.5523 1 11 1Z" fill="#1F242C"/>
<path opacity="0.3" d="M15 0H14.5C13.9477 0 13.5 0.447715 13.5 1V11C13.5 11.5523 13.9477 12 14.5 12H15C15.5523 12 16 11.5523 16 11V1C16 0.447715 15.5523 0 15 0Z" fill="#1F242C"/>
</g>
<defs>
<clipPath id="clip0_430_130">
<rect width="16" height="12" fill="white"/>
</clipPath>
</defs>
</svg>
