<svg width="24" height="24" viewBox="0 0 24 24" fill="none" xmlns="http://www.w3.org/2000/svg">
<path d="M3.51429 12.2229C4.27554 11.798 5.16702 11.6698 6.01715 11.8629M7.42286 7.33714C6.93741 6.60531 6.73622 5.72126 6.85715 4.85143M11.3657 1.23428C10.7649 3.07487 10.8439 5.06988 11.5886 6.85714M20.3143 22.6286L8.86286 18.36C8.52389 18.2403 8.22048 18.0372 7.98057 17.7695C7.74066 17.5018 7.57196 17.178 7.49001 16.828C7.40805 16.4779 7.41547 16.1129 7.51158 15.7665C7.6077 15.4201 7.78941 15.1035 8.04 14.8457L15.2229 7.66285C15.4882 7.41416 15.812 7.23649 16.1643 7.14631C16.5166 7.05612 16.886 7.05635 17.2382 7.14696C17.5904 7.23757 17.914 7.41564 18.179 7.66465C18.4441 7.91366 18.6419 8.22556 18.7543 8.57143L23.0057 20.0229C23.1238 20.3938 23.136 20.7904 23.0409 21.168C22.9459 21.5455 22.7473 21.889 22.4676 22.1598C22.1879 22.4306 21.8381 22.618 21.4577 22.7008C21.0773 22.7836 20.6813 22.7586 20.3143 22.6286ZM1.71429 6.48C1.94162 6.48 2.15964 6.38969 2.32038 6.22895C2.48113 6.0682 2.57143 5.85018 2.57143 5.62285C2.57143 5.39553 2.48113 5.17751 2.32038 5.01676C2.15964 4.85602 1.94162 4.76571 1.71429 4.76571C1.48696 4.76571 1.26894 4.85602 1.1082 5.01676C0.947453 5.17751 0.857147 5.39553 0.857147 5.62285C0.857147 5.85018 0.947453 6.0682 1.1082 6.22895C1.26894 6.38969 1.48696 6.48 1.71429 6.48Z" stroke="black" stroke-width="1.5" stroke-linecap="round" stroke-linejoin="round"/>
</svg>
