<svg width="23" height="23" viewBox="0 0 23 23" fill="none" xmlns="http://www.w3.org/2000/svg">
<path fill-rule="evenodd" clip-rule="evenodd" d="M11.2963 0.33021C11.4493 0.383197 11.5904 0.465828 11.7114 0.573378C11.8325 0.680929 11.9312 0.811288 12.0018 0.957002C12.0725 1.10272 12.1137 1.26093 12.1231 1.42259C12.1326 1.58425 12.1101 1.74618 12.0569 1.89914C11.5839 3.262 11.6467 4.75375 12.2327 6.072C12.3649 6.37089 12.373 6.71008 12.2552 7.01494C12.1373 7.3198 11.9032 7.56536 11.6043 7.6976C11.3054 7.82984 10.9662 7.83793 10.6614 7.72008C10.3565 7.60223 10.1109 7.36811 9.97871 7.06921C9.14024 5.18088 9.0504 3.04455 9.72735 1.0925C9.78001 0.939179 9.8624 0.797761 9.96981 0.676344C10.0772 0.554927 10.2075 0.455898 10.3533 0.384932C10.499 0.313965 10.6573 0.272457 10.8192 0.262785C10.981 0.253113 11.1431 0.275467 11.2963 0.328567M7.43064 4.73635C7.47552 4.41262 7.38995 4.08432 7.19277 3.82367C6.99559 3.56302 6.70294 3.39137 6.37921 3.3465C6.05547 3.30162 5.72717 3.38718 5.46652 3.58436C5.20587 3.78154 5.03423 4.07419 4.98935 4.39792C4.83208 5.52934 5.09384 6.67922 5.72535 7.63107C5.81489 7.76591 5.9301 7.88179 6.06442 7.9721C6.19874 8.06242 6.34953 8.12539 6.50819 8.15742C6.66684 8.18946 6.83025 8.18993 6.98909 8.15882C7.14793 8.1277 7.29908 8.0656 7.43392 7.97607C7.56876 7.88653 7.68465 7.77132 7.77496 7.637C7.86527 7.50268 7.92824 7.35189 7.96028 7.19323C7.99232 7.03458 7.99279 6.87117 7.96167 6.71233C7.93055 6.55349 7.86846 6.40234 7.77892 6.2675C7.47999 5.81667 7.35613 5.27213 7.43064 4.73635ZM17.0989 7.04785C16.6498 6.93282 16.1791 6.93273 15.73 7.04758C15.281 7.16243 14.8681 7.38852 14.5294 7.705L14.5097 7.72471L8.0845 14.1499L8.07628 14.1581C7.7566 14.4871 7.52468 14.8911 7.40181 15.3331C7.27894 15.7751 7.26905 16.2408 7.37306 16.6876C7.47707 17.1344 7.69164 17.5479 7.99708 17.8901C8.30251 18.2324 8.68902 18.4925 9.12114 18.6464L19.3594 22.4628L19.3709 22.4677C19.8464 22.6362 20.3597 22.6677 20.8522 22.5587C21.3448 22.4496 21.7968 22.2044 22.1567 21.8509C22.5167 21.4975 22.7701 21.05 22.8881 20.5596C23.0061 20.0691 22.984 19.5553 22.8242 19.0769L19.0243 8.84678C18.8786 8.40998 18.626 8.01657 18.2894 7.70236C17.9528 7.38816 17.543 7.16316 17.0972 7.04785M5.38692 12.995C4.86925 12.8757 4.32568 12.9536 3.86235 13.2135C3.57696 13.3727 3.23999 13.4121 2.92558 13.3229C2.61117 13.2337 2.34507 13.0233 2.18582 12.7379C2.02656 12.4525 1.9872 12.1155 2.0764 11.8011C2.16559 11.4867 2.37603 11.2206 2.66142 11.0614C3.6559 10.505 4.82148 10.3376 5.93235 10.5915C6.25108 10.6638 6.52801 10.8598 6.70224 11.1363C6.87647 11.4128 6.93372 11.7472 6.86139 12.066C6.78906 12.3847 6.59308 12.6616 6.31657 12.8358C6.04005 13.0101 5.70565 13.0673 5.38692 12.995ZM1.74964 5.75C1.31393 5.75 0.896058 5.92308 0.587963 6.23118C0.279867 6.53927 0.106781 6.95714 0.106781 7.39285C0.106781 7.82857 0.279867 8.24643 0.587963 8.55453C0.896058 8.86262 1.31393 9.03571 1.74964 9.03571C2.18535 9.03571 2.60322 8.86262 2.91131 8.55453C3.21941 8.24643 3.3925 7.82857 3.3925 7.39285C3.3925 6.95714 3.21941 6.53927 2.91131 6.23118C2.60322 5.92308 2.18535 5.75 1.74964 5.75Z" fill="black"/>
</svg>
