<svg width="24" height="24" viewBox="0 0 24 24" fill="none" xmlns="http://www.w3.org/2000/svg">
<path fill-rule="evenodd" clip-rule="evenodd" d="M2.25 3.6C2.25 2.854 2.854 2.25 3.6 2.25H20.4C21.146 2.25 21.75 2.854 21.75 3.6V20.4C21.75 20.5773 21.7151 20.7528 21.6472 20.9166C21.5794 21.0804 21.48 21.2292 21.3546 21.3546C21.2292 21.48 21.0804 21.5794 20.9166 21.6472C20.7528 21.7151 20.5773 21.75 20.4 21.75H3.6C3.42272 21.75 3.24717 21.7151 3.08338 21.6472C2.91959 21.5794 2.77076 21.48 2.64541 21.3546C2.52005 21.2292 2.42061 21.0804 2.35276 20.9166C2.28492 20.7528 2.25 20.5773 2.25 20.4V3.6ZM15.58 7.52C15.5097 7.44276 15.424 7.38107 15.3284 7.33888C15.2328 7.29669 15.1295 7.27493 15.025 7.275H10.075C9.97651 7.275 9.87898 7.2944 9.78799 7.33209C9.69699 7.36978 9.61431 7.42503 9.54467 7.49467C9.47503 7.56431 9.41978 7.64699 9.38209 7.73799C9.3444 7.82898 9.325 7.92651 9.325 8.025C9.325 8.12349 9.3444 8.22102 9.38209 8.31201C9.41978 8.40301 9.47503 8.48569 9.54467 8.55533C9.61431 8.62497 9.69699 8.68022 9.78799 8.71791C9.87898 8.7556 9.97651 8.775 10.075 8.775H13.215L10.959 11.031C10.248 11.742 9.858 12.491 9.709 13.231C9.58122 13.8885 9.62952 14.5681 9.849 15.201C10.0093 15.6725 10.2392 16.1174 10.531 16.521C10.728 16.796 10.891 16.971 10.943 17.025C11.233 17.32 11.723 17.337 12.02 17.041C12.1605 16.9004 12.2393 16.7098 12.2393 16.511C12.2393 16.3122 12.1605 16.1216 12.02 15.981C11.9229 15.8768 11.8333 15.7659 11.752 15.649C11.5482 15.3665 11.3866 15.0559 11.272 14.727C11.1353 14.3415 11.1039 13.9266 11.181 13.525C11.265 13.106 11.494 12.617 12.02 12.091L14.275 9.836V12.976C14.275 13.1749 14.354 13.3657 14.4947 13.5063C14.6353 13.647 14.8261 13.726 15.025 13.726C15.2239 13.726 15.4147 13.647 15.5553 13.5063C15.696 13.3657 15.775 13.1749 15.775 12.976V8.026C15.7751 7.83878 15.7062 7.65829 15.58 7.52Z" fill="black"/>
</svg>
